<?xml version="1.0" encoding="utf-8"?>
<!-- Generator: Adobe Illustrator 16.0.0, SVG Export Plug-In . SVG Version: 6.00 Build 0)  -->
<!DOCTYPE svg PUBLIC "-//W3C//DTD SVG 1.1//EN" "http://www.w3.org/Graphics/SVG/1.1/DTD/svg11.dtd">
<svg version="1.1" id="Layer_1" xmlns="http://www.w3.org/2000/svg" xmlns:xlink="http://www.w3.org/1999/xlink" x="0px" y="0px"
	 width="220px" height="32px" viewBox="0 0 220 32" enable-background="new 0 0 220 32" xml:space="preserve">
<g>
	<g>
		<path fill="#A18169" d="M16.1,19.07L12.82,6.25L9.58,19.07H5.35L0,0.4h4.45l3.28,13.5l3.56-13.5h3.11l3.53,13.5L21.2,0.4h4.45
			l-5.32,18.68H16.1z"/>
		<path fill="#A18169" d="M25.87,9.75c0-5.63,4.12-9.66,9.77-9.66c5.63,0,9.74,4.03,9.74,9.66c0,5.63-4.12,9.66-9.74,9.66
			C29.99,19.41,25.87,15.38,25.87,9.75z M41.3,9.75c0-3.5-2.21-6.13-5.66-6.13c-3.47,0-5.68,2.63-5.68,6.13
			c0,3.47,2.21,6.13,5.68,6.13C39.09,15.88,41.3,13.22,41.3,9.75z"/>
		<path fill="#A18169" d="M46.88,9.75c0-5.63,4.12-9.66,9.77-9.66c5.63,0,9.74,4.03,9.74,9.66c0,5.63-4.12,9.66-9.74,9.66
			C51,19.41,46.88,15.38,46.88,9.75z M62.31,9.75c0-3.5-2.21-6.13-5.66-6.13c-3.47,0-5.68,2.63-5.68,6.13
			c0,3.47,2.21,6.13,5.68,6.13C60.1,15.88,62.31,13.22,62.31,9.75z"/>
		<path fill="#A18169" d="M68.89,19.07V0.4h7.36c5.85,0,9.91,3.72,9.91,9.32c0,5.66-4.06,9.35-9.88,9.35H68.89z M82.1,9.72
			c0-3.28-2.02-5.82-5.82-5.82h-3.42v11.68h3.39C79.95,15.57,82.1,12.91,82.1,9.72z"/>
	</g>
	<g>
		<path fill="#777777" d="M37.45,31.77v-7.11h-2.53v-0.89h6.07v0.89h-2.54v7.11H37.45z"/>
		<path fill="#777777" d="M42.13,31.77v-8h5.24v0.89h-4.25v2.58h4.16v0.89h-4.16v2.76h4.25v0.89H42.13z"/>
		<path fill="#777777" d="M48.44,27.77c0-2.46,1.81-4.14,4.11-4.14c1.42,0,2.4,0.67,3.04,1.58l-0.83,0.47
			c-0.46-0.68-1.29-1.16-2.21-1.16c-1.75,0-3.08,1.33-3.08,3.25c0,1.9,1.33,3.25,3.08,3.25c0.91,0,1.75-0.49,2.21-1.16l0.84,0.46
			c-0.67,0.92-1.63,1.6-3.05,1.6C50.25,31.91,48.44,30.23,48.44,27.77z"/>
		<path fill="#777777" d="M62.46,31.77V28.1h-4.68v3.67h-1v-8h1v3.44h4.68v-3.44h1v8H62.46z"/>
		<path fill="#777777" d="M68.07,31.77v-8h1v7.11h3.72v0.89H68.07z"/>
		<path fill="#777777" d="M73.87,31.77v-8h1v7.11h3.72v0.89H73.87z"/>
		<path fill="#777777" d="M79,27.77c0-2.46,1.81-4.14,4.11-4.14c1.41,0,2.4,0.67,3.03,1.58l-0.83,0.47
			c-0.46-0.68-1.3-1.16-2.21-1.16c-1.75,0-3.08,1.33-3.08,3.25c0,1.9,1.33,3.25,3.08,3.25c0.91,0,1.75-0.49,2.21-1.16l0.84,0.46
			c-0.67,0.92-1.63,1.6-3.04,1.6C80.81,31.91,79,30.23,79,27.77z"/>
	</g>
</g>
</svg>
