<?xml version="1.0" encoding="utf-8"?>
<!-- Generator: Adobe Illustrator 16.0.0, SVG Export Plug-In . SVG Version: 6.00 Build 0)  -->
<!DOCTYPE svg PUBLIC "-//W3C//DTD SVG 1.1//EN" "http://www.w3.org/Graphics/SVG/1.1/DTD/svg11.dtd">
<svg version="1.1" id="Layer_1" xmlns="http://www.w3.org/2000/svg" xmlns:xlink="http://www.w3.org/1999/xlink" x="0px" y="0px"
	 width="220px" height="32px" viewBox="0 0 220 32" enable-background="new 0 0 220 32" xml:space="preserve">
<g>
	<g>
		<path fill="#D5794B" d="M0,19.07V0.4h8.74c4.06,0,6.27,2.74,6.27,6.02c0,3.25-2.24,5.99-6.27,5.99H3.98v6.66H0z M10.95,6.42
			c0-1.57-1.2-2.52-2.77-2.52h-4.2v5.01h4.2C9.74,8.91,10.95,7.96,10.95,6.42z"/>
		<path fill="#D5794B" d="M27.41,19.07l-3.67-6.64h-2.91v6.64h-3.98V0.4h8.74c3.89,0,6.3,2.55,6.3,6.02c0,3.28-2.1,5.07-4.12,5.54
			L32,19.07H27.41z M27.8,6.39c0-1.54-1.2-2.49-2.77-2.49h-4.2v5.04h4.2C26.6,8.94,27.8,7.98,27.8,6.39z"/>
		<path fill="#D5794B" d="M33.36,9.75c0-5.63,4.12-9.66,9.77-9.66c5.63,0,9.74,4.03,9.74,9.66c0,5.63-4.12,9.66-9.74,9.66
			C37.47,19.41,33.36,15.38,33.36,9.75z M48.79,9.75c0-3.5-2.21-6.13-5.66-6.13c-3.47,0-5.68,2.63-5.68,6.13
			c0,3.47,2.21,6.13,5.68,6.13C46.58,15.88,48.79,13.22,48.79,9.75z"/>
		<path fill="#D5794B" d="M55.36,19.07V0.4h8.74c4.06,0,6.27,2.74,6.27,6.02c0,3.25-2.24,5.99-6.27,5.99h-4.76v6.66H55.36z
			 M66.31,6.42c0-1.57-1.21-2.52-2.77-2.52h-4.2v5.01h4.2C65.1,8.91,66.31,7.96,66.31,6.42z"/>
		<path fill="#D5794B" d="M72.22,19.07V0.4h13.21v3.5h-9.24v3.92h9.04v3.5h-9.04v4.26h9.24v3.5H72.22z"/>
		<path fill="#D5794B" d="M99.05,19.07l-3.67-6.64h-2.91v6.64H88.5V0.4h8.74c3.89,0,6.3,2.55,6.3,6.02c0,3.28-2.1,5.07-4.12,5.54
			l4.23,7.11H99.05z M99.45,6.39c0-1.54-1.2-2.49-2.77-2.49h-4.2v5.04h4.2C98.24,8.94,99.45,7.98,99.45,6.39z"/>
		<path fill="#D5794B" d="M110.27,19.07V3.9h-5.46V0.4h14.9v3.5h-5.43v15.18H110.27z"/>
		<path fill="#D5794B" d="M127.72,19.07v-7.64L120.55,0.4h4.54l4.62,7.48l4.62-7.48h4.51l-7.14,11.03v7.64H127.72z"/>
	</g>
	<g>
		<path fill="#777777" d="M90.12,31.77v-7.11h-2.53v-0.89h6.07v0.89h-2.54v7.11H90.12z"/>
		<path fill="#777777" d="M94.8,31.77v-8h5.24v0.89H95.8v2.58h4.16v0.89H95.8v2.76h4.25v0.89H94.8z"/>
		<path fill="#777777" d="M101.11,27.77c0-2.46,1.81-4.14,4.11-4.14c1.42,0,2.4,0.67,3.04,1.58l-0.83,0.47
			c-0.46-0.68-1.29-1.16-2.21-1.16c-1.75,0-3.08,1.33-3.08,3.25c0,1.9,1.33,3.25,3.08,3.25c0.91,0,1.75-0.49,2.21-1.16l0.84,0.46
			c-0.67,0.92-1.63,1.6-3.05,1.6C102.92,31.91,101.11,30.23,101.11,27.77z"/>
		<path fill="#777777" d="M115.13,31.77V28.1h-4.68v3.67h-1v-8h1v3.44h4.68v-3.44h1v8H115.13z"/>
		<path fill="#777777" d="M120.74,31.77v-8h1v7.11h3.72v0.89H120.74z"/>
		<path fill="#777777" d="M126.54,31.77v-8h1v7.11h3.72v0.89H126.54z"/>
		<path fill="#777777" d="M131.67,27.77c0-2.46,1.81-4.14,4.11-4.14c1.41,0,2.4,0.67,3.03,1.58l-0.83,0.47
			c-0.46-0.68-1.3-1.16-2.21-1.16c-1.75,0-3.08,1.33-3.08,3.25c0,1.9,1.33,3.25,3.08,3.25c0.91,0,1.75-0.49,2.21-1.16l0.84,0.46
			c-0.67,0.92-1.63,1.6-3.04,1.6C133.48,31.91,131.67,30.23,131.67,27.77z"/>
	</g>
</g>
</svg>
