<?xml version="1.0" encoding="utf-8"?>
<!-- Generator: Adobe Illustrator 16.0.0, SVG Export Plug-In . SVG Version: 6.00 Build 0)  -->
<!DOCTYPE svg PUBLIC "-//W3C//DTD SVG 1.1//EN" "http://www.w3.org/Graphics/SVG/1.1/DTD/svg11.dtd">
<svg version="1.1" id="Layer_1" xmlns="http://www.w3.org/2000/svg" xmlns:xlink="http://www.w3.org/1999/xlink" x="0px" y="0px"
	 width="220px" height="32px" viewBox="0 0 220 32" enable-background="new 0 0 220 32" xml:space="preserve">
<g>
	<g>
		<path fill="#637AB0" d="M5.46,19.06V3.88H0v-3.5h14.9v3.5H9.46v15.18H5.46z"/>
		<path fill="#637AB0" d="M27.24,19.06l-3.67-6.64h-2.91v6.64h-3.98V0.38h8.74c3.89,0,6.3,2.55,6.3,6.02c0,3.28-2.1,5.07-4.12,5.54
			l4.23,7.11H27.24z M27.63,6.37c0-1.54-1.2-2.49-2.77-2.49h-4.2v5.04h4.2C26.42,8.92,27.63,7.97,27.63,6.37z"/>
		<path fill="#637AB0" d="M47.7,19.06l-1.18-3.16h-8.01l-1.18,3.16h-4.51l7.2-18.68h4.98l7.2,18.68H47.7z M42.52,4.36l-2.91,8.04
			h5.82L42.52,4.36z"/>
		<path fill="#637AB0" d="M66.49,19.06l-8.9-12.18v12.18h-3.98V0.38h4.09l8.65,11.73V0.38h3.98v18.68H66.49z"/>
		<path fill="#637AB0" d="M72.49,16.43l2.18-3.11c1.32,1.37,3.36,2.55,5.94,2.55c2.21,0,3.25-0.98,3.25-2.07
			c0-3.25-10.75-0.98-10.75-8.01c0-3.11,2.69-5.68,7.08-5.68c2.97,0,5.43,0.9,7.28,2.6l-2.21,2.97c-1.51-1.4-3.53-2.04-5.43-2.04
			c-1.68,0-2.63,0.73-2.63,1.85c0,2.94,10.72,0.95,10.72,7.92c0,3.42-2.46,5.99-7.48,5.99C76.83,19.39,74.25,18.19,72.49,16.43z"/>
	</g>
	<g>
		<path fill="#777777" d="M39.21,31.75v-7.11h-2.53v-0.89h6.07v0.89H40.2v7.11H39.21z"/>
		<path fill="#777777" d="M43.89,31.75v-8h5.24v0.89h-4.25v2.58h4.16v0.89h-4.16v2.76h4.25v0.89H43.89z"/>
		<path fill="#777777" d="M50.2,27.76c0-2.46,1.81-4.14,4.11-4.14c1.42,0,2.4,0.67,3.04,1.58l-0.83,0.47
			c-0.46-0.68-1.29-1.16-2.21-1.16c-1.75,0-3.08,1.33-3.08,3.25c0,1.9,1.33,3.25,3.08,3.25c0.91,0,1.75-0.49,2.21-1.16l0.84,0.46
			c-0.67,0.92-1.63,1.6-3.05,1.6C52.01,31.9,50.2,30.22,50.2,27.76z"/>
		<path fill="#777777" d="M64.22,31.75v-3.67h-4.68v3.67h-1v-8h1v3.44h4.68v-3.44h1v8H64.22z"/>
		<path fill="#777777" d="M69.83,31.75v-8h1v7.11h3.72v0.89H69.83z"/>
		<path fill="#777777" d="M75.62,31.75v-8h1v7.11h3.72v0.89H75.62z"/>
		<path fill="#777777" d="M80.76,27.76c0-2.46,1.81-4.14,4.11-4.14c1.41,0,2.4,0.67,3.03,1.58l-0.83,0.47
			c-0.46-0.68-1.3-1.16-2.21-1.16c-1.75,0-3.08,1.33-3.08,3.25c0,1.9,1.33,3.25,3.08,3.25c0.91,0,1.75-0.49,2.21-1.16l0.84,0.46
			c-0.67,0.92-1.63,1.6-3.04,1.6C82.57,31.9,80.76,30.22,80.76,27.76z"/>
	</g>
</g>
</svg>
