<?xml version="1.0" encoding="utf-8"?>
<!-- Generator: Adobe Illustrator 16.0.0, SVG Export Plug-In . SVG Version: 6.00 Build 0)  -->
<!DOCTYPE svg PUBLIC "-//W3C//DTD SVG 1.1//EN" "http://www.w3.org/Graphics/SVG/1.1/DTD/svg11.dtd">
<svg version="1.1" id="Layer_1" xmlns="http://www.w3.org/2000/svg" xmlns:xlink="http://www.w3.org/1999/xlink" x="0px" y="0px"
	 width="220px" height="32px" viewBox="0 0 220 32" enable-background="new 0 0 220 32" xml:space="preserve">
<g>
	<g>
		<path fill="#9180A1" d="M0,19.07V0.4h8.74c4.06,0,6.27,2.74,6.27,6.02c0,3.25-2.24,5.99-6.27,5.99H3.98v6.66H0z M10.95,6.42
			c0-1.57-1.2-2.52-2.77-2.52h-4.2v5.01h4.2C9.74,8.91,10.95,7.96,10.95,6.42z"/>
		<path fill="#9180A1" d="M16.92,19.07V0.4h3.98v18.68H16.92z"/>
		<path fill="#9180A1" d="M24.25,19.07V0.4h4v15.18h7.9v3.5H24.25z"/>
		<path fill="#9180A1" d="M38,19.07V0.4h3.98v18.68H38z"/>
		<path fill="#9180A1" d="M58.29,19.07l-8.9-12.18v12.18h-3.98V0.4h4.09l8.65,11.73V0.4h3.98v18.68H58.29z"/>
		<path fill="#9180A1" d="M64.6,9.75c0-5.91,4.48-9.66,9.97-9.66c3.86,0,6.3,1.96,7.7,4.17l-3.28,1.79
			c-0.87-1.32-2.46-2.44-4.42-2.44c-3.42,0-5.88,2.6-5.88,6.13c0,3.53,2.46,6.13,5.88,6.13c1.65,0,3.19-0.73,3.95-1.43v-2.24h-4.93
			V8.74h8.9v7.17c-1.9,2.13-4.56,3.5-7.92,3.5C69.08,19.41,64.6,15.63,64.6,9.75z"/>
	</g>
	<g>
		<path fill="#777777" d="M33.78,31.77v-7.11h-2.53v-0.89h6.07v0.89h-2.54v7.11H33.78z"/>
		<path fill="#777777" d="M38.46,31.77v-8h5.24v0.89h-4.25v2.58h4.16v0.89h-4.16v2.76h4.25v0.89H38.46z"/>
		<path fill="#777777" d="M44.77,27.77c0-2.46,1.81-4.14,4.11-4.14c1.42,0,2.4,0.67,3.03,1.58l-0.83,0.47
			c-0.46-0.68-1.29-1.16-2.21-1.16c-1.75,0-3.08,1.33-3.08,3.25c0,1.9,1.33,3.25,3.08,3.25c0.91,0,1.75-0.49,2.21-1.16l0.84,0.46
			c-0.67,0.92-1.63,1.6-3.05,1.6C46.59,31.91,44.77,30.23,44.77,27.77z"/>
		<path fill="#777777" d="M58.8,31.77V28.1h-4.68v3.67h-1v-8h1v3.44h4.68v-3.44h1v8H58.8z"/>
		<path fill="#777777" d="M64.4,31.77v-8h0.99v7.11h3.72v0.89H64.4z"/>
		<path fill="#777777" d="M70.2,31.77v-8h1v7.11h3.72v0.89H70.2z"/>
		<path fill="#777777" d="M75.33,27.77c0-2.46,1.81-4.14,4.11-4.14c1.42,0,2.4,0.67,3.03,1.58l-0.83,0.47
			c-0.46-0.68-1.3-1.16-2.21-1.16c-1.75,0-3.08,1.33-3.08,3.25c0,1.9,1.33,3.25,3.08,3.25c0.91,0,1.75-0.49,2.21-1.16l0.84,0.46
			c-0.67,0.92-1.63,1.6-3.05,1.6C77.15,31.91,75.33,30.23,75.33,27.77z"/>
	</g>
</g>
</svg>
