<?xml version="1.0" encoding="utf-8"?>
<!-- Generator: Adobe Illustrator 16.0.0, SVG Export Plug-In . SVG Version: 6.00 Build 0)  -->
<!DOCTYPE svg PUBLIC "-//W3C//DTD SVG 1.1//EN" "http://www.w3.org/Graphics/SVG/1.1/DTD/svg11.dtd">
<svg version="1.1" id="Layer_1" xmlns="http://www.w3.org/2000/svg" xmlns:xlink="http://www.w3.org/1999/xlink" x="0px" y="0px"
	 width="220px" height="32px" viewBox="0 0 220 32" enable-background="new 0 0 220 32" xml:space="preserve">
<g>
	<g>
		<path fill="#6C9291" d="M0,19.07V0.4h9.83c3.56,0,5.38,2.27,5.38,4.76c0,2.32-1.46,3.92-3.22,4.28C14,9.75,15.57,11.68,15.57,14
			c0,2.83-1.85,5.07-5.43,5.07H0z M11.14,5.86c0-1.15-0.84-1.96-2.18-1.96H3.98v3.92h4.98C10.3,7.82,11.14,7.06,11.14,5.86z
			 M11.51,13.44c0-1.18-0.84-2.13-2.38-2.13H3.98v4.26h5.15C10.61,15.57,11.51,14.79,11.51,13.44z"/>
		<path fill="#6C9291" d="M18.26,19.07V0.4h4v15.18h7.9v3.5H18.26z"/>
		<path fill="#6C9291" d="M30.79,9.75c0-5.63,4.12-9.66,9.77-9.66c5.63,0,9.74,4.03,9.74,9.66c0,5.63-4.12,9.66-9.74,9.66
			C34.9,19.41,30.79,15.38,30.79,9.75z M46.22,9.75c0-3.5-2.21-6.13-5.66-6.13c-3.47,0-5.68,2.63-5.68,6.13
			c0,3.47,2.21,6.13,5.68,6.13C44,15.88,46.22,13.22,46.22,9.75z"/>
		<path fill="#6C9291" d="M51.8,9.75c0-5.77,4.34-9.66,9.97-9.66c4.09,0,6.47,2.21,7.78,4.56l-3.42,1.68
			c-0.78-1.51-2.46-2.72-4.37-2.72c-3.42,0-5.88,2.6-5.88,6.13c0,3.53,2.46,6.13,5.88,6.13c1.9,0,3.58-1.2,4.37-2.72l3.42,1.65
			c-1.32,2.32-3.7,4.59-7.78,4.59C56.14,19.41,51.8,15.49,51.8,9.75z"/>
		<path fill="#6C9291" d="M82.66,19.07L77,11.57l-1.46,1.76v5.74h-3.98V0.4h3.98v8.32l6.61-8.32h4.9l-7.42,8.76l7.92,9.91H82.66z"/>
	</g>
	<g>
		<path fill="#777777" d="M38.85,31.77v-7.11h-2.53v-0.89h6.07v0.89h-2.54v7.11H38.85z"/>
		<path fill="#777777" d="M43.53,31.77v-8h5.24v0.89h-4.25v2.58h4.16v0.89h-4.16v2.76h4.25v0.89H43.53z"/>
		<path fill="#777777" d="M49.84,27.77c0-2.46,1.81-4.14,4.11-4.14c1.42,0,2.4,0.67,3.03,1.58l-0.83,0.47
			c-0.46-0.68-1.29-1.16-2.21-1.16c-1.75,0-3.08,1.33-3.08,3.25c0,1.9,1.33,3.25,3.08,3.25c0.91,0,1.75-0.49,2.21-1.16L57,30.32
			c-0.67,0.92-1.63,1.6-3.05,1.6C51.65,31.91,49.84,30.23,49.84,27.77z"/>
		<path fill="#777777" d="M63.86,31.77V28.1h-4.68v3.67h-1v-8h1v3.44h4.68v-3.44h1v8H63.86z"/>
		<path fill="#777777" d="M69.47,31.77v-8h0.99v7.11h3.72v0.89H69.47z"/>
		<path fill="#777777" d="M75.26,31.77v-8h1v7.11h3.72v0.89H75.26z"/>
		<path fill="#777777" d="M80.4,27.77c0-2.46,1.81-4.14,4.11-4.14c1.42,0,2.4,0.67,3.03,1.58l-0.83,0.47
			c-0.46-0.68-1.3-1.16-2.21-1.16c-1.75,0-3.08,1.33-3.08,3.25c0,1.9,1.33,3.25,3.08,3.25c0.91,0,1.75-0.49,2.21-1.16l0.84,0.46
			c-0.67,0.92-1.63,1.6-3.05,1.6C82.21,31.91,80.4,30.23,80.4,27.77z"/>
	</g>
</g>
</svg>
