<?xml version="1.0" encoding="utf-8"?>
<!-- Generator: Adobe Illustrator 16.0.0, SVG Export Plug-In . SVG Version: 6.00 Build 0)  -->
<!DOCTYPE svg PUBLIC "-//W3C//DTD SVG 1.1//EN" "http://www.w3.org/Graphics/SVG/1.1/DTD/svg11.dtd">
<svg version="1.1" id="Layer_1" xmlns="http://www.w3.org/2000/svg" xmlns:xlink="http://www.w3.org/1999/xlink" x="0px" y="0px"
	 width="220px" height="32px" viewBox="0 0 220 32" enable-background="new 0 0 220 32" xml:space="preserve">
<g>
	<g>
		<path fill="#34A6B4" d="M10.55,18.92l-3.67-6.64H3.97v6.64H0V0.24h8.74c3.89,0,6.3,2.55,6.3,6.02c0,3.28-2.1,5.07-4.12,5.54
			l4.23,7.11H10.55z M10.95,6.23c0-1.54-1.2-2.49-2.77-2.49h-4.2v5.04h4.2C9.74,8.78,10.95,7.83,10.95,6.23z"/>
		<path fill="#34A6B4" d="M17.7,18.92V0.24h13.22v3.5h-9.24v3.92h9.04v3.5h-9.04v4.26h9.24v3.5H17.7z"/>
		<path fill="#34A6B4" d="M50.23,18.92V5.45l-5.26,13.47h-1.74L37.96,5.45v13.47h-3.98V0.24h5.57l4.54,11.68l4.54-11.68h5.6v18.68
			H50.23z"/>
		<path fill="#34A6B4" d="M57.73,18.92V0.24h3.98v18.68H57.73z"/>
		<path fill="#34A6B4" d="M77.2,18.92l-4.68-6.83l-4.7,6.83h-4.73l6.78-9.58l-6.36-9.1h4.73l4.28,6.38l4.23-6.38h4.79l-6.36,9.07
			l6.78,9.6H77.2z"/>
	</g>
	<g>
		<path fill="#777777" d="M33.25,31.61V24.5h-2.53v-0.89h6.07v0.89h-2.54v7.11H33.25z"/>
		<path fill="#777777" d="M37.93,31.61v-8h5.24v0.89h-4.25v2.58h4.16v0.89h-4.16v2.76h4.25v0.89H37.93z"/>
		<path fill="#777777" d="M44.24,27.62c0-2.46,1.81-4.14,4.11-4.14c1.42,0,2.4,0.67,3.03,1.58l-0.83,0.47
			c-0.46-0.68-1.29-1.16-2.21-1.16c-1.75,0-3.08,1.33-3.08,3.25c0,1.89,1.33,3.25,3.08,3.25c0.91,0,1.75-0.49,2.21-1.16l0.84,0.46
			c-0.67,0.92-1.63,1.59-3.05,1.59C46.06,31.76,44.24,30.08,44.24,27.62z"/>
		<path fill="#777777" d="M58.26,31.61v-3.67h-4.68v3.67h-1v-8h1v3.44h4.68v-3.44h1v8H58.26z"/>
		<path fill="#777777" d="M63.87,31.61v-8h1v7.11h3.72v0.89H63.87z"/>
		<path fill="#777777" d="M69.67,31.61v-8h1v7.11h3.72v0.89H69.67z"/>
		<path fill="#777777" d="M74.8,27.62c0-2.46,1.81-4.14,4.11-4.14c1.41,0,2.4,0.67,3.03,1.58l-0.83,0.47
			c-0.46-0.68-1.3-1.16-2.21-1.16c-1.75,0-3.08,1.33-3.08,3.25c0,1.89,1.33,3.25,3.08,3.25c0.91,0,1.75-0.49,2.21-1.16l0.84,0.46
			c-0.67,0.92-1.63,1.59-3.04,1.59C76.62,31.76,74.8,30.08,74.8,27.62z"/>
	</g>
</g>
</svg>
