<?xml version="1.0" encoding="utf-8"?>
<!-- Generator: Adobe Illustrator 16.0.0, SVG Export Plug-In . SVG Version: 6.00 Build 0)  -->
<!DOCTYPE svg PUBLIC "-//W3C//DTD SVG 1.1//EN" "http://www.w3.org/Graphics/SVG/1.1/DTD/svg11.dtd">
<svg version="1.1" id="Layer_1" xmlns="http://www.w3.org/2000/svg" xmlns:xlink="http://www.w3.org/1999/xlink" x="0px" y="0px"
	 width="220px" height="32px" viewBox="0 0 220 32" enable-background="new 0 0 220 32" xml:space="preserve">
<g>
	<g>
		<path fill="#8F951A" d="M0,9.75c0-5.77,4.34-9.66,9.97-9.66c4.09,0,6.47,2.21,7.78,4.56l-3.42,1.68
			c-0.78-1.51-2.46-2.72-4.37-2.72c-3.42,0-5.88,2.6-5.88,6.13c0,3.53,2.46,6.13,5.88,6.13c1.9,0,3.58-1.21,4.37-2.72l3.42,1.65
			c-1.32,2.32-3.7,4.59-7.78,4.59C4.34,19.41,0,15.49,0,9.75z"/>
		<path fill="#8F951A" d="M18.5,9.75c0-5.63,4.12-9.66,9.77-9.66c5.63,0,9.74,4.03,9.74,9.66c0,5.63-4.12,9.66-9.74,9.66
			C22.62,19.41,18.5,15.38,18.5,9.75z M33.93,9.75c0-3.5-2.21-6.13-5.66-6.13c-3.47,0-5.68,2.63-5.68,6.13
			c0,3.47,2.21,6.13,5.68,6.13C31.72,15.88,33.93,13.22,33.93,9.75z"/>
		<path fill="#8F951A" d="M53.38,19.07l-8.9-12.18v12.18H40.5V0.4h4.09l8.65,11.73V0.4h3.98v18.68H53.38z"/>
		<path fill="#8F951A" d="M59.38,16.44l2.18-3.11c1.32,1.37,3.36,2.55,5.94,2.55c2.21,0,3.25-0.98,3.25-2.07
			c0-3.25-10.75-0.98-10.75-8.01c0-3.11,2.69-5.68,7.08-5.68c2.97,0,5.43,0.9,7.28,2.6l-2.21,2.97c-1.51-1.4-3.53-2.04-5.43-2.04
			c-1.68,0-2.63,0.73-2.63,1.85c0,2.94,10.72,0.95,10.72,7.92c0,3.42-2.46,5.99-7.48,5.99C63.72,19.41,61.14,18.21,59.38,16.44z"/>
		<path fill="#8F951A" d="M81.32,19.07V3.9h-5.46V0.4h14.9v3.5h-5.43v15.18H81.32z"/>
		<path fill="#8F951A" d="M103.09,19.07l-3.67-6.64h-2.91v6.64h-3.98V0.4h8.74c3.89,0,6.3,2.55,6.3,6.02c0,3.28-2.1,5.07-4.12,5.54
			l4.23,7.11H103.09z M103.48,6.39c0-1.54-1.21-2.49-2.77-2.49h-4.2v5.04h4.2C102.28,8.94,103.48,7.99,103.48,6.39z"/>
		<path fill="#8F951A" d="M110,11.6V0.4h4.03v11.09c0,2.6,1.51,4.4,4.4,4.4s4.37-1.79,4.37-4.4V0.4h4.06v11.2
			c0,4.62-2.74,7.81-8.43,7.81S110,16.22,110,11.6z"/>
		<path fill="#8F951A" d="M129.21,9.75c0-5.77,4.34-9.66,9.97-9.66c4.09,0,6.47,2.21,7.78,4.56l-3.42,1.68
			c-0.78-1.51-2.46-2.72-4.37-2.72c-3.42,0-5.88,2.6-5.88,6.13c0,3.53,2.46,6.13,5.88,6.13c1.9,0,3.58-1.21,4.37-2.72l3.42,1.65
			c-1.32,2.32-3.7,4.59-7.78,4.59C133.55,19.41,129.21,15.49,129.21,9.75z"/>
		<path fill="#8F951A" d="M153.49,19.07V3.9h-5.46V0.4h14.89v3.5h-5.43v15.18H153.49z"/>
		<path fill="#8F951A" d="M164.71,19.07V0.4h3.97v18.68H164.71z"/>
		<path fill="#8F951A" d="M171.15,9.75c0-5.63,4.12-9.66,9.77-9.66c5.63,0,9.74,4.03,9.74,9.66c0,5.63-4.12,9.66-9.74,9.66
			C175.27,19.41,171.15,15.38,171.15,9.75z M186.58,9.75c0-3.5-2.21-6.13-5.66-6.13c-3.47,0-5.68,2.63-5.68,6.13
			c0,3.47,2.21,6.13,5.68,6.13C184.37,15.88,186.58,13.22,186.58,9.75z"/>
		<path fill="#8F951A" d="M206.04,19.07l-8.9-12.18v12.18h-3.98V0.4h4.09l8.65,11.73V0.4h3.97v18.68H206.04z"/>
	</g>
	<g>
		<path fill="#777777" d="M161.04,31.77v-7.11h-2.53v-0.89h6.07v0.89h-2.54v7.11H161.04z"/>
		<path fill="#777777" d="M165.73,31.77v-8h5.24v0.89h-4.24v2.58h4.16v0.89h-4.16v2.76h4.24v0.89H165.73z"/>
		<path fill="#777777" d="M172.04,27.77c0-2.46,1.81-4.14,4.11-4.14c1.42,0,2.4,0.67,3.04,1.58l-0.83,0.47
			c-0.46-0.68-1.29-1.16-2.21-1.16c-1.75,0-3.08,1.33-3.08,3.25c0,1.89,1.33,3.25,3.08,3.25c0.91,0,1.75-0.49,2.21-1.16l0.84,0.46
			c-0.67,0.92-1.63,1.59-3.05,1.59C173.85,31.91,172.04,30.23,172.04,27.77z"/>
		<path fill="#777777" d="M186.06,31.77V28.1h-4.68v3.67h-1v-8h1v3.44h4.68v-3.44h1v8H186.06z"/>
		<path fill="#777777" d="M191.67,31.77v-8h1v7.11h3.72v0.89H191.67z"/>
		<path fill="#777777" d="M197.46,31.77v-8h0.99v7.11h3.72v0.89H197.46z"/>
		<path fill="#777777" d="M202.6,27.77c0-2.46,1.81-4.14,4.12-4.14c1.41,0,2.4,0.67,3.03,1.58l-0.83,0.47
			c-0.46-0.68-1.3-1.16-2.21-1.16c-1.75,0-3.08,1.33-3.08,3.25c0,1.89,1.33,3.25,3.08,3.25c0.91,0,1.75-0.49,2.21-1.16l0.84,0.46
			c-0.67,0.92-1.63,1.59-3.04,1.59C204.41,31.91,202.6,30.23,202.6,27.77z"/>
	</g>
</g>
</svg>
