<?xml version="1.0" encoding="utf-8"?>
<!-- Generator: Adobe Illustrator 16.0.0, SVG Export Plug-In . SVG Version: 6.00 Build 0)  -->
<!DOCTYPE svg PUBLIC "-//W3C//DTD SVG 1.1//EN" "http://www.w3.org/Graphics/SVG/1.1/DTD/svg11.dtd">
<svg version="1.1" id="Layer_1" xmlns="http://www.w3.org/2000/svg" xmlns:xlink="http://www.w3.org/1999/xlink" x="0px" y="0px"
	 width="220px" height="32px" viewBox="0 0 220 32" enable-background="new 0 0 220 32" xml:space="preserve">
<g>
	<g>
		<path fill="#7F7F7F" d="M0,16.43l2.18-3.11c1.32,1.37,3.36,2.55,5.94,2.55c2.21,0,3.25-0.98,3.25-2.07
			c0-3.25-10.75-0.98-10.75-8.01C0.62,2.68,3.3,0.1,7.7,0.1c2.97,0,5.43,0.9,7.28,2.6l-2.21,2.97c-1.51-1.4-3.53-2.04-5.43-2.04
			c-1.68,0-2.63,0.73-2.63,1.85c0,2.94,10.72,0.95,10.72,7.92c0,3.42-2.46,5.99-7.48,5.99C4.34,19.4,1.76,18.19,0,16.43z"/>
		<path fill="#7F7F7F" d="M21.94,19.06V3.88h-5.46v-3.5h14.9v3.5h-5.43v15.18H21.94z"/>
		<path fill="#7F7F7F" d="M33.16,19.06V0.38h13.22v3.5h-9.24V7.8h9.04v3.5h-9.04v4.26h9.24v3.5H33.16z"/>
		<path fill="#7F7F7F" d="M49.44,19.06V0.38h13.22v3.5h-9.24V7.8h9.04v3.5h-9.04v4.26h9.24v3.5H49.44z"/>
		<path fill="#7F7F7F" d="M65.64,19.06V0.38h4v15.18h7.9v3.5H65.64z"/>
		<path fill="#7F7F7F" d="M79.39,19.06V0.38h13.22v3.5h-9.24V7.8h9.04v3.5h-9.04v7.76H79.39z"/>
		<path fill="#7F7F7F" d="M106.89,19.06l-1.18-3.16h-8.01l-1.18,3.16h-4.51l7.2-18.68h4.98l7.2,18.68H106.89z M101.71,4.36
			l-2.91,8.04h5.82L101.71,4.36z"/>
		<path fill="#7F7F7F" d="M112.8,19.06V0.38h9.83c3.56,0,5.38,2.27,5.38,4.76c0,2.32-1.46,3.92-3.22,4.28
			c2.02,0.31,3.58,2.24,3.58,4.56c0,2.83-1.85,5.07-5.43,5.07H112.8z M123.95,5.84c0-1.15-0.84-1.96-2.18-1.96h-4.98V7.8h4.98
			C123.11,7.8,123.95,7.05,123.95,5.84z M124.31,13.43c0-1.18-0.84-2.13-2.38-2.13h-5.15v4.26h5.15
			C123.42,15.56,124.31,14.77,124.31,13.43z"/>
	</g>
	<g>
		<path fill="#777777" d="M79.66,31.75v-7.11h-2.53v-0.89h6.07v0.89h-2.54v7.11H79.66z"/>
		<path fill="#777777" d="M84.34,31.75v-8h5.24v0.89h-4.25v2.58h4.16v0.89h-4.16v2.76h4.25v0.89H84.34z"/>
		<path fill="#777777" d="M90.65,27.76c0-2.46,1.81-4.14,4.11-4.14c1.42,0,2.4,0.67,3.04,1.58l-0.83,0.47
			c-0.46-0.68-1.29-1.16-2.21-1.16c-1.75,0-3.08,1.33-3.08,3.25c0,1.89,1.33,3.25,3.08,3.25c0.91,0,1.75-0.49,2.21-1.16l0.84,0.46
			c-0.67,0.92-1.63,1.59-3.05,1.59C92.47,31.9,90.65,30.22,90.65,27.76z"/>
		<path fill="#777777" d="M104.68,31.75v-3.67H100v3.67h-1v-8h1v3.44h4.68v-3.44h1v8H104.68z"/>
		<path fill="#777777" d="M110.28,31.75v-8h0.99v7.11H115v0.89H110.28z"/>
		<path fill="#777777" d="M116.08,31.75v-8h1v7.11h3.72v0.89H116.08z"/>
		<path fill="#777777" d="M121.21,27.76c0-2.46,1.81-4.14,4.11-4.14c1.41,0,2.4,0.67,3.03,1.58l-0.83,0.47
			c-0.46-0.68-1.3-1.16-2.21-1.16c-1.75,0-3.08,1.33-3.08,3.25c0,1.89,1.33,3.25,3.08,3.25c0.91,0,1.75-0.49,2.21-1.16l0.84,0.46
			c-0.67,0.92-1.63,1.59-3.04,1.59C123.03,31.9,121.21,30.22,121.21,27.76z"/>
	</g>
</g>
</svg>
