<?xml version="1.0" encoding="utf-8"?>
<!-- Generator: Adobe Illustrator 16.0.0, SVG Export Plug-In . SVG Version: 6.00 Build 0)  -->
<!DOCTYPE svg PUBLIC "-//W3C//DTD SVG 1.1//EN" "http://www.w3.org/Graphics/SVG/1.1/DTD/svg11.dtd">
<svg version="1.1" id="Layer_1" xmlns="http://www.w3.org/2000/svg" xmlns:xlink="http://www.w3.org/1999/xlink" x="0px" y="0px"
	 width="220px" height="32px" viewBox="0 0 220 32" enable-background="new 0 0 220 32" xml:space="preserve">
<g>
	<g>
		<path fill="#B49434" d="M16.24,18.92V5.45l-5.26,13.47H9.24L3.98,5.45v13.47H0V0.24h5.57l4.54,11.68l4.54-11.68h5.6v18.68H16.24z"
			/>
		<path fill="#B49434" d="M23.74,18.92V0.24h13.22v3.5h-9.24v3.92h9.04v3.5h-9.04v4.26h9.24v3.5H23.74z"/>
		<path fill="#B49434" d="M40.02,18.92V0.24h8.74c4.06,0,6.27,2.74,6.27,6.02c0,3.25-2.24,5.99-6.27,5.99H44v6.66H40.02z
			 M50.97,6.26c0-1.57-1.2-2.52-2.77-2.52H44v5.01h4.2C49.77,8.75,50.97,7.8,50.97,6.26z"/>
	</g>
	<g>
		<path fill="#777777" d="M6.32,31.61V24.5H3.79v-0.89h6.07v0.89H7.31v7.11H6.32z"/>
		<path fill="#777777" d="M11,31.61v-8h5.24v0.89H12v2.58h4.16v0.89H12v2.76h4.25v0.89H11z"/>
		<path fill="#777777" d="M17.31,27.62c0-2.46,1.81-4.14,4.11-4.14c1.42,0,2.4,0.67,3.04,1.58l-0.83,0.47
			c-0.46-0.68-1.29-1.16-2.21-1.16c-1.75,0-3.08,1.33-3.08,3.25c0,1.9,1.33,3.25,3.08,3.25c0.91,0,1.75-0.49,2.21-1.16l0.84,0.46
			c-0.67,0.92-1.63,1.59-3.05,1.59C19.12,31.76,17.31,30.08,17.31,27.62z"/>
		<path fill="#777777" d="M31.33,31.61v-3.67h-4.68v3.67h-1v-8h1v3.44h4.68v-3.44h1v8H31.33z"/>
		<path fill="#777777" d="M36.94,31.61v-8h1v7.11h3.72v0.89H36.94z"/>
		<path fill="#777777" d="M42.74,31.61v-8h1v7.11h3.72v0.89H42.74z"/>
		<path fill="#777777" d="M47.87,27.62c0-2.46,1.81-4.14,4.11-4.14c1.41,0,2.4,0.67,3.03,1.58l-0.83,0.47
			c-0.46-0.68-1.3-1.16-2.21-1.16c-1.75,0-3.08,1.33-3.08,3.25c0,1.9,1.33,3.25,3.08,3.25c0.91,0,1.75-0.49,2.21-1.16l0.84,0.46
			c-0.67,0.92-1.63,1.59-3.04,1.59C49.68,31.76,47.87,30.08,47.87,27.62z"/>
	</g>
</g>
</svg>
