<?xml version="1.0" encoding="utf-8"?>
<!-- Generator: Adobe Illustrator 16.0.0, SVG Export Plug-In . SVG Version: 6.00 Build 0)  -->
<!DOCTYPE svg PUBLIC "-//W3C//DTD SVG 1.1//EN" "http://www.w3.org/Graphics/SVG/1.1/DTD/svg11.dtd">
<svg version="1.1" id="Layer_1" xmlns="http://www.w3.org/2000/svg" xmlns:xlink="http://www.w3.org/1999/xlink" x="0px" y="0px"
	 width="220px" height="32px" viewBox="0 0 220 32" enable-background="new 0 0 220 32" xml:space="preserve">
<g>
	<g>
		<path fill="#8A9780" d="M0,19.07V0.4h13.22v3.5H3.98v3.92h9.04v3.5H3.98v4.26h9.24v3.5H0z"/>
		<path fill="#8A9780" d="M16.2,19.07V0.4h4v15.18h7.9v3.5H16.2z"/>
		<path fill="#8A9780" d="M29.95,19.07V0.4h13.22v3.5h-9.24v3.92h9.04v3.5h-9.04v4.26h9.24v3.5H29.95z"/>
		<path fill="#8A9780" d="M51.48,19.07L44.28,0.4h4.51l5.18,14.34L59.15,0.4h4.51l-7.2,18.68H51.48z"/>
		<path fill="#8A9780" d="M76.53,19.07l-1.18-3.16h-8.01l-1.18,3.16h-4.51l7.2-18.68h4.98l7.2,18.68H76.53z M71.35,4.37l-2.91,8.04
			h5.82L71.35,4.37z"/>
		<path fill="#8A9780" d="M84.58,19.07V3.9h-5.46V0.4h14.89v3.5h-5.43v15.18H84.58z"/>
		<path fill="#8A9780" d="M94.57,9.75c0-5.63,4.12-9.66,9.77-9.66c5.63,0,9.74,4.03,9.74,9.66c0,5.63-4.12,9.66-9.74,9.66
			C98.69,19.41,94.57,15.38,94.57,9.75z M110,9.75c0-3.5-2.21-6.13-5.66-6.13c-3.47,0-5.68,2.63-5.68,6.13
			c0,3.47,2.21,6.13,5.68,6.13C107.79,15.88,110,13.22,110,9.75z"/>
		<path fill="#8A9780" d="M127.13,19.07l-3.67-6.64h-2.91v6.64h-3.98V0.4h8.74c3.89,0,6.3,2.55,6.3,6.02c0,3.28-2.1,5.07-4.12,5.54
			l4.23,7.11H127.13z M127.52,6.39c0-1.54-1.2-2.49-2.77-2.49h-4.2v5.04h4.2C126.32,8.94,127.52,7.99,127.52,6.39z"/>
		<path fill="#8A9780" d="M132.88,16.44l2.18-3.11c1.32,1.37,3.36,2.55,5.94,2.55c2.21,0,3.25-0.98,3.25-2.07
			c0-3.25-10.75-0.98-10.75-8.01c0-3.11,2.69-5.68,7.08-5.68c2.97,0,5.43,0.9,7.28,2.6l-2.21,2.97c-1.51-1.4-3.53-2.04-5.43-2.04
			c-1.68,0-2.63,0.73-2.63,1.85c0,2.94,10.72,0.95,10.72,7.92c0,3.42-2.46,5.99-7.48,5.99C137.21,19.41,134.64,18.2,132.88,16.44z"
			/>
	</g>
	<g>
		<path fill="#777777" d="M99.59,31.77v-7.11h-2.53v-0.89h6.07v0.89h-2.54v7.11H99.59z"/>
		<path fill="#777777" d="M104.27,31.77v-8h5.24v0.89h-4.25v2.58h4.16v0.89h-4.16v2.76h4.25v0.89H104.27z"/>
		<path fill="#777777" d="M110.58,27.77c0-2.46,1.81-4.14,4.11-4.14c1.42,0,2.4,0.67,3.03,1.58l-0.83,0.47
			c-0.46-0.68-1.29-1.16-2.21-1.16c-1.75,0-3.08,1.33-3.08,3.25c0,1.89,1.33,3.25,3.08,3.25c0.91,0,1.75-0.49,2.21-1.16l0.84,0.46
			c-0.67,0.92-1.63,1.59-3.05,1.59C112.39,31.91,110.58,30.23,110.58,27.77z"/>
		<path fill="#777777" d="M124.6,31.77V28.1h-4.68v3.67h-1v-8h1v3.44h4.68v-3.44h1v8H124.6z"/>
		<path fill="#777777" d="M130.21,31.77v-8h0.99v7.11h3.72v0.89H130.21z"/>
		<path fill="#777777" d="M136.01,31.77v-8h1v7.11h3.72v0.89H136.01z"/>
		<path fill="#777777" d="M141.14,27.77c0-2.46,1.81-4.14,4.11-4.14c1.42,0,2.4,0.67,3.03,1.58l-0.83,0.47
			c-0.46-0.68-1.3-1.16-2.21-1.16c-1.75,0-3.08,1.33-3.08,3.25c0,1.89,1.33,3.25,3.08,3.25c0.91,0,1.75-0.49,2.21-1.16l0.84,0.46
			c-0.67,0.92-1.63,1.59-3.05,1.59C142.95,31.91,141.14,30.23,141.14,27.77z"/>
	</g>
</g>
</svg>
