<?xml version="1.0" encoding="utf-8"?>
<!-- Generator: Adobe Illustrator 16.0.0, SVG Export Plug-In . SVG Version: 6.00 Build 0)  -->
<!DOCTYPE svg PUBLIC "-//W3C//DTD SVG 1.1//EN" "http://www.w3.org/Graphics/SVG/1.1/DTD/svg11.dtd">
<svg version="1.1" id="Layer_1" xmlns="http://www.w3.org/2000/svg" xmlns:xlink="http://www.w3.org/1999/xlink" x="0px" y="0px"
	 width="220px" height="32px" viewBox="0 0 220 32" enable-background="new 0 0 220 32" xml:space="preserve">
<g>
	<g>
		<path fill="#7494B1" d="M14.87,19.07l-1.18-3.16H5.68l-1.18,3.16H0L7.2,0.4h4.98l7.2,18.68H14.87z M9.69,4.37l-2.91,8.04h5.82
			L9.69,4.37z"/>
		<path fill="#7494B1" d="M20.7,19.07V0.4h4v15.18h7.9v3.5H20.7z"/>
		<path fill="#7494B1" d="M34.09,11.6V0.4h4.03v11.09c0,2.6,1.51,4.4,4.4,4.4c2.88,0,4.37-1.79,4.37-4.4V0.4h4.06v11.2
			c0,4.62-2.74,7.81-8.43,7.81S34.09,16.22,34.09,11.6z"/>
		<path fill="#7494B1" d="M53.3,9.75c0-5.91,4.48-9.66,9.97-9.66c3.86,0,6.3,1.96,7.7,4.17l-3.28,1.79
			c-0.87-1.32-2.46-2.44-4.42-2.44c-3.42,0-5.88,2.6-5.88,6.13c0,3.53,2.46,6.13,5.88,6.13c1.65,0,3.19-0.73,3.95-1.43v-2.24h-4.93
			V8.74h8.9v7.17c-1.9,2.13-4.56,3.5-7.92,3.5C57.78,19.41,53.3,15.63,53.3,9.75z"/>
		<path fill="#7494B1" d="M74.13,19.07V0.4h4v15.18h7.9v3.5H74.13z"/>
		<path fill="#7494B1" d="M101.81,19.07l-1.18-3.16h-8.01l-1.18,3.16h-4.51l7.2-18.68h4.98l7.2,18.68H101.81z M96.63,4.37
			l-2.91,8.04h5.82L96.63,4.37z"/>
		<path fill="#7494B1" d="M106.66,16.44l2.18-3.11c1.32,1.37,3.36,2.55,5.94,2.55c2.21,0,3.25-0.98,3.25-2.07
			c0-3.25-10.75-0.98-10.75-8.01c0-3.11,2.69-5.68,7.08-5.68c2.97,0,5.43,0.9,7.28,2.6l-2.21,2.97c-1.51-1.4-3.53-2.04-5.43-2.04
			c-1.68,0-2.63,0.73-2.63,1.85c0,2.94,10.72,0.95,10.72,7.92c0,3.42-2.46,5.99-7.48,5.99C111,19.41,108.42,18.2,106.66,16.44z"/>
		<path fill="#7494B1" d="M123.06,16.44l2.18-3.11c1.32,1.37,3.36,2.55,5.94,2.55c2.21,0,3.25-0.98,3.25-2.07
			c0-3.25-10.75-0.98-10.75-8.01c0-3.11,2.69-5.68,7.08-5.68c2.97,0,5.43,0.9,7.28,2.6l-2.21,2.97c-1.51-1.4-3.53-2.04-5.43-2.04
			c-1.68,0-2.63,0.73-2.63,1.85c0,2.94,10.72,0.95,10.72,7.92c0,3.42-2.46,5.99-7.48,5.99C127.4,19.41,124.82,18.2,123.06,16.44z"/>
	</g>
	<g>
		<path fill="#777777" d="M89.77,31.77v-7.11h-2.53v-0.89h6.07v0.89h-2.54v7.11H89.77z"/>
		<path fill="#777777" d="M94.45,31.77v-8h5.24v0.89h-4.25v2.58h4.16v0.89h-4.16v2.76h4.25v0.89H94.45z"/>
		<path fill="#777777" d="M100.77,27.77c0-2.46,1.81-4.14,4.11-4.14c1.42,0,2.4,0.67,3.03,1.58l-0.83,0.47
			c-0.46-0.68-1.29-1.16-2.21-1.16c-1.75,0-3.08,1.33-3.08,3.25c0,1.9,1.33,3.25,3.08,3.25c0.91,0,1.75-0.49,2.21-1.16l0.84,0.46
			c-0.67,0.92-1.63,1.6-3.05,1.6C102.58,31.91,100.77,30.23,100.77,27.77z"/>
		<path fill="#777777" d="M114.79,31.77V28.1h-4.68v3.67h-1v-8h1v3.44h4.68v-3.44h1v8H114.79z"/>
		<path fill="#777777" d="M120.4,31.77v-8h0.99v7.11h3.72v0.89H120.4z"/>
		<path fill="#777777" d="M126.19,31.77v-8h1v7.11h3.72v0.89H126.19z"/>
		<path fill="#777777" d="M131.33,27.77c0-2.46,1.81-4.14,4.11-4.14c1.42,0,2.4,0.67,3.03,1.58l-0.83,0.47
			c-0.46-0.68-1.3-1.16-2.21-1.16c-1.75,0-3.08,1.33-3.08,3.25c0,1.9,1.33,3.25,3.08,3.25c0.91,0,1.75-0.49,2.21-1.16l0.84,0.46
			c-0.67,0.92-1.63,1.6-3.05,1.6C133.14,31.91,131.33,30.23,131.33,27.77z"/>
	</g>
</g>
</svg>
