<?xml version="1.0" encoding="utf-8"?>
<!-- Generator: Adobe Illustrator 16.0.0, SVG Export Plug-In . SVG Version: 6.00 Build 0)  -->
<!DOCTYPE svg PUBLIC "-//W3C//DTD SVG 1.1//EN" "http://www.w3.org/Graphics/SVG/1.1/DTD/svg11.dtd">
<svg version="1.1" id="Layer_1" xmlns="http://www.w3.org/2000/svg" xmlns:xlink="http://www.w3.org/1999/xlink" x="0px" y="0px"
	 width="220px" height="32px" viewBox="0 0 220 32" enable-background="new 0 0 220 32" xml:space="preserve">
<g>
	<g>
		<path fill="#E86A6A" d="M0,9.75c0-5.77,4.34-9.66,9.97-9.66c4.09,0,6.47,2.21,7.78,4.56l-3.42,1.68
			c-0.78-1.51-2.46-2.72-4.37-2.72c-3.42,0-5.88,2.6-5.88,6.13c0,3.53,2.46,6.13,5.88,6.13c1.9,0,3.58-1.2,4.37-2.72l3.42,1.65
			c-1.32,2.32-3.7,4.59-7.78,4.59C4.34,19.41,0,15.49,0,9.75z"/>
		<path fill="#E86A6A" d="M19.77,19.07V0.4h13.22v3.5h-9.24v3.92h9.04v3.5h-9.04v4.26h9.24v3.5H19.77z"/>
		<path fill="#E86A6A" d="M46.61,19.07l-3.67-6.64h-2.91v6.64h-3.98V0.4h8.74c3.89,0,6.3,2.55,6.3,6.02c0,3.28-2.1,5.07-4.12,5.54
			l4.23,7.11H46.61z M47,6.39c0-1.54-1.21-2.49-2.77-2.49h-4.2v5.04h4.2C45.79,8.94,47,7.98,47,6.39z"/>
		<path fill="#E86A6A" d="M67.07,19.07l-1.18-3.16h-8.01l-1.18,3.16h-4.51L59.4,0.4h4.98l7.2,18.68H67.07z M61.89,4.37l-2.91,8.04
			h5.82L61.89,4.37z"/>
		<path fill="#E86A6A" d="M89.22,19.07V5.6l-5.26,13.47h-1.74L76.96,5.6v13.47h-3.97V0.4h5.57l4.54,11.68L87.63,0.4h5.6v18.68H89.22
			z"/>
		<path fill="#E86A6A" d="M96.72,19.07V0.4h3.98v18.68H96.72z"/>
		<path fill="#E86A6A" d="M103.17,9.75c0-5.77,4.34-9.66,9.97-9.66c4.09,0,6.47,2.21,7.78,4.56l-3.42,1.68
			c-0.78-1.51-2.46-2.72-4.37-2.72c-3.42,0-5.88,2.6-5.88,6.13c0,3.53,2.46,6.13,5.88,6.13c1.9,0,3.58-1.2,4.37-2.72l3.42,1.65
			c-1.32,2.32-3.7,4.59-7.78,4.59C107.51,19.41,103.17,15.49,103.17,9.75z"/>
	</g>
	<g>
		<path fill="#777777" d="M72.21,31.77v-7.11h-2.53v-0.89h6.07v0.89h-2.54v7.11H72.21z"/>
		<path fill="#777777" d="M76.89,31.77v-8h5.24v0.89h-4.25v2.58h4.16v0.89h-4.16v2.76h4.25v0.89H76.89z"/>
		<path fill="#777777" d="M83.2,27.77c0-2.46,1.81-4.14,4.11-4.14c1.42,0,2.4,0.67,3.04,1.58l-0.83,0.47
			c-0.46-0.68-1.29-1.16-2.21-1.16c-1.75,0-3.08,1.33-3.08,3.25c0,1.9,1.33,3.25,3.08,3.25c0.91,0,1.75-0.49,2.21-1.16l0.84,0.46
			c-0.67,0.92-1.63,1.6-3.05,1.6C85.01,31.91,83.2,30.23,83.2,27.77z"/>
		<path fill="#777777" d="M97.22,31.77V28.1h-4.68v3.67h-1v-8h1v3.44h4.68v-3.44h1v8H97.22z"/>
		<path fill="#777777" d="M102.83,31.77v-8h1v7.11h3.72v0.89H102.83z"/>
		<path fill="#777777" d="M108.63,31.77v-8h1v7.11h3.72v0.89H108.63z"/>
		<path fill="#777777" d="M113.76,27.77c0-2.46,1.81-4.14,4.11-4.14c1.41,0,2.4,0.67,3.03,1.58l-0.83,0.47
			c-0.46-0.68-1.3-1.16-2.21-1.16c-1.75,0-3.08,1.33-3.08,3.25c0,1.9,1.33,3.25,3.08,3.25c0.91,0,1.75-0.49,2.21-1.16l0.84,0.46
			c-0.67,0.92-1.63,1.6-3.04,1.6C115.57,31.91,113.76,30.23,113.76,27.77z"/>
	</g>
</g>
</svg>
