<?xml version="1.0" encoding="utf-8"?>
<!-- Generator: Adobe Illustrator 16.0.0, SVG Export Plug-In . SVG Version: 6.00 Build 0)  -->
<!DOCTYPE svg PUBLIC "-//W3C//DTD SVG 1.1//EN" "http://www.w3.org/Graphics/SVG/1.1/DTD/svg11.dtd">
<svg version="1.1" id="icons" xmlns="http://www.w3.org/2000/svg" xmlns:xlink="http://www.w3.org/1999/xlink" x="0px" y="0px"
	 width="28.82px" height="28.86px" viewBox="0 0 28.82 28.86" enable-background="new 0 0 28.82 28.86" xml:space="preserve">
<g>
	<path fill="#F05428" d="M28.82,24.38l-8.49-8.49c0.81-1.52,1.27-3.25,1.27-5.09C21.6,4.83,16.76,0,10.8,0S0,4.83,0,10.8
		c0,5.96,4.83,10.8,10.8,10.8c1.81,0,3.52-0.45,5.02-1.24l8.51,8.51L28.82,24.38z M3.6,10.8c0-3.97,3.23-7.2,7.2-7.2
		S18,6.83,18,10.8c0,3.97-3.23,7.2-7.2,7.2S3.6,14.77,3.6,10.8z"/>
</g>
</svg>
