<?xml version="1.0" encoding="utf-8"?>
<!-- Generator: Adobe Illustrator 16.0.0, SVG Export Plug-In . SVG Version: 6.00 Build 0)  -->
<!DOCTYPE svg PUBLIC "-//W3C//DTD SVG 1.1//EN" "http://www.w3.org/Graphics/SVG/1.1/DTD/svg11.dtd">
<svg version="1.1" id="Layer_1" xmlns="http://www.w3.org/2000/svg" xmlns:xlink="http://www.w3.org/1999/xlink" x="0px" y="0px"
	 width="180.22px" height="28.39px" viewBox="0 0 180.22 28.39" enable-background="new 0 0 180.22 28.39" xml:space="preserve">
<g>
	<g>
		<path fill="#8F951A" d="M0,8.28C0,3.34,3.72,0,8.54,0c3.5,0,5.54,1.9,6.67,3.91l-2.93,1.44c-0.67-1.3-2.11-2.33-3.74-2.33
			c-2.93,0-5.04,2.23-5.04,5.26s2.11,5.26,5.04,5.26c1.63,0,3.07-1.03,3.74-2.33l2.93,1.42c-1.13,1.99-3.17,3.94-6.67,3.94
			C3.72,16.56,0,13.2,0,8.28z"/>
		<path fill="#8F951A" d="M15.89,8.28c0-4.82,3.53-8.28,8.38-8.28c4.82,0,8.35,3.46,8.35,8.28s-3.53,8.28-8.35,8.28
			C19.42,16.56,15.89,13.1,15.89,8.28z M29.11,8.28c0-3-1.9-5.26-4.85-5.26c-2.98,0-4.87,2.26-4.87,5.26c0,2.98,1.9,5.26,4.87,5.26
			C27.22,13.54,29.11,11.26,29.11,8.28z"/>
		<path fill="#8F951A" d="M45.82,16.27L38.18,5.83v10.44h-3.41V0.26h3.5l7.42,10.06V0.26h3.41v16.01H45.82z"/>
		<path fill="#8F951A" d="M50.99,14.02l1.87-2.66c1.13,1.18,2.88,2.18,5.09,2.18c1.9,0,2.78-0.84,2.78-1.78
			c0-2.78-9.22-0.84-9.22-6.86c0-2.66,2.3-4.87,6.07-4.87c2.54,0,4.66,0.77,6.24,2.23l-1.9,2.54c-1.3-1.2-3.02-1.75-4.66-1.75
			c-1.44,0-2.26,0.62-2.26,1.58c0,2.52,9.19,0.82,9.19,6.79c0,2.93-2.11,5.14-6.41,5.14C54.71,16.56,52.5,15.53,50.99,14.02z"/>
		<path fill="#8F951A" d="M69.82,16.27V3.26h-4.68v-3h12.77v3h-4.66v13.01H69.82z"/>
		<path fill="#8F951A" d="M88.51,16.27l-3.14-5.69h-2.5v5.69h-3.41V0.26h7.49c3.34,0,5.4,2.18,5.4,5.16c0,2.81-1.8,4.34-3.53,4.75
			l3.62,6.1H88.51z M88.85,5.4c0-1.32-1.03-2.14-2.38-2.14h-3.6v4.32h3.6C87.82,7.58,88.85,6.77,88.85,5.4z"/>
		<path fill="#8F951A" d="M94.46,9.86v-9.6h3.46v9.5c0,2.23,1.3,3.77,3.77,3.77s3.74-1.54,3.74-3.77v-9.5h3.48v9.6
			c0,3.96-2.35,6.7-7.22,6.7C96.82,16.56,94.46,13.83,94.46,9.86z"/>
		<path fill="#8F951A" d="M110.96,8.28c0-4.94,3.72-8.28,8.54-8.28c3.5,0,5.54,1.9,6.67,3.91l-2.93,1.44
			c-0.67-1.3-2.11-2.33-3.74-2.33c-2.93,0-5.04,2.23-5.04,5.26s2.11,5.26,5.04,5.26c1.63,0,3.07-1.03,3.74-2.33l2.93,1.42
			c-1.13,1.99-3.17,3.94-6.67,3.94C114.68,16.56,110.96,13.2,110.96,8.28z"/>
		<path fill="#8F951A" d="M131.8,16.27V3.26h-4.68v-3h12.77v3h-4.66v13.01H131.8z"/>
		<path fill="#8F951A" d="M141.44,16.27V0.26h3.41v16.01H141.44z"/>
		<path fill="#8F951A" d="M147,8.28c0-4.82,3.53-8.28,8.38-8.28c4.82,0,8.35,3.46,8.35,8.28s-3.53,8.28-8.35,8.28
			C150.53,16.56,147,13.1,147,8.28z M160.23,8.28c0-3-1.9-5.26-4.85-5.26c-2.98,0-4.87,2.26-4.87,5.26c0,2.98,1.9,5.26,4.87,5.26
			C158.33,13.54,160.23,11.26,160.23,8.28z"/>
		<path fill="#8F951A" d="M176.93,16.27L169.3,5.83v10.44h-3.41V0.26h3.5l7.42,10.06V0.26h3.41v16.01H176.93z"/>
	</g>
	<g>
		<path fill="#777777" d="M139.17,28.27v-5.93h-2.11v-0.74h5.06v0.74H140v5.93H139.17z"/>
		<path fill="#777777" d="M143.16,28.27v-6.67h4.37v0.74h-3.54v2.15h3.47v0.74h-3.47v2.3h3.54v0.74H143.16z"/>
		<path fill="#777777" d="M148.51,24.95c0-2.05,1.51-3.45,3.43-3.45c1.18,0,2,0.56,2.53,1.32l-0.69,0.39
			c-0.38-0.57-1.08-0.97-1.84-0.97c-1.46,0-2.57,1.11-2.57,2.71c0,1.58,1.11,2.71,2.57,2.71c0.76,0,1.46-0.41,1.84-0.97l0.7,0.38
			c-0.56,0.77-1.36,1.33-2.54,1.33C150.02,28.39,148.51,26.99,148.51,24.95z"/>
		<path fill="#777777" d="M160.28,28.27v-3.06h-3.9v3.06h-0.83v-6.67h0.83v2.87h3.9v-2.87h0.83v6.67H160.28z"/>
		<path fill="#777777" d="M164.95,28.27v-6.67h0.83v5.93h3.1v0.74H164.95z"/>
		<path fill="#777777" d="M169.87,28.27v-6.67h0.83v5.93h3.1v0.74H169.87z"/>
		<path fill="#777777" d="M174.25,24.95c0-2.05,1.51-3.45,3.43-3.45c1.18,0,2,0.56,2.53,1.32l-0.69,0.39
			c-0.38-0.57-1.08-0.97-1.84-0.97c-1.46,0-2.57,1.11-2.57,2.71c0,1.58,1.11,2.71,2.57,2.71c0.76,0,1.46-0.41,1.84-0.97l0.7,0.38
			c-0.56,0.77-1.36,1.33-2.54,1.33C175.76,28.39,174.25,26.99,174.25,24.95z"/>
	</g>
</g>
</svg>
