<?xml version="1.0" encoding="utf-8"?>
<!-- Generator: Adobe Illustrator 16.0.0, SVG Export Plug-In . SVG Version: 6.00 Build 0)  -->
<!DOCTYPE svg PUBLIC "-//W3C//DTD SVG 1.1//EN" "http://www.w3.org/Graphics/SVG/1.1/DTD/svg11.dtd">
<svg version="1.1" id="Layer_1" xmlns="http://www.w3.org/2000/svg" xmlns:xlink="http://www.w3.org/1999/xlink" x="0px" y="0px"
	 width="212.68px" height="22.42px" viewBox="0 0 212.68 22.42" enable-background="new 0 0 212.68 22.42" xml:space="preserve">
<g>
	<g>
		<path fill="#F85222" d="M33.3,22V4.66h-6.24v-4h17.02v4h-6.21V22H33.3z"/>
		<path fill="#F85222" d="M45.44,22V0.66h15.1v4H49.99v4.48h10.33v4H49.99V18h10.56v4H45.44z"/>
		<path fill="#F85222" d="M61.99,11.35c0-6.59,4.96-11.04,11.39-11.04c4.67,0,7.39,2.53,8.89,5.22l-3.9,1.92
			c-0.9-1.73-2.82-3.1-4.99-3.1c-3.9,0-6.72,2.98-6.72,7.01s2.82,7.01,6.72,7.01c2.18,0,4.1-1.38,4.99-3.1l3.9,1.89
			c-1.5,2.66-4.22,5.25-8.89,5.25C66.95,22.38,61.99,17.9,61.99,11.35z"/>
		<path fill="#F85222" d="M98.53,22v-8.99H88.45V22h-4.54V0.66h4.54v8.38h10.08V0.66h4.58V22H98.53z"/>
		<path fill="#252525" d="M111.68,11.35c0-6.66,4.9-11.04,10.98-11.04c3.81,0,6.43,1.66,8.29,3.97l-2.11,1.34
			c-1.34-1.73-3.62-2.94-6.17-2.94c-4.67,0-8.22,3.55-8.22,8.67c0,5.06,3.55,8.67,8.22,8.67c2.56,0,4.67-1.22,5.76-2.3v-4.32h-7.36
			v-2.37h9.98v7.68c-1.98,2.24-4.9,3.71-8.38,3.71C116.58,22.42,111.68,17.97,111.68,11.35z"/>
		<path fill="#252525" d="M146.9,22l-5.41-8.48h-4.29V22h-2.66V0.66h8.58c3.9,0,6.72,2.5,6.72,6.43c0,3.84-2.66,5.95-5.57,6.21
			l5.76,8.7H146.9z M147.1,7.09c0-2.43-1.76-4.06-4.29-4.06h-5.6v8.16h5.6C145.34,11.19,147.1,9.49,147.1,7.09z"/>
		<path fill="#252525" d="M151.79,11.35c0-6.3,4.29-11.04,10.59-11.04c6.3,0,10.62,4.74,10.62,11.04c0,6.3-4.32,11.04-10.62,11.04
			C156.08,22.38,151.79,17.65,151.79,11.35z M170.25,11.35c0-4.99-3.1-8.67-7.87-8.67c-4.8,0-7.84,3.68-7.84,8.67
			c0,4.96,3.04,8.67,7.84,8.67C167.15,20.02,170.25,16.3,170.25,11.35z"/>
		<path fill="#252525" d="M175.92,13.71V0.66h2.69v12.99c0,3.9,2.08,6.37,6.02,6.37s6.05-2.46,6.05-6.37V0.66h2.69v13.02
			c0,5.31-2.94,8.7-8.74,8.7C178.87,22.38,175.92,18.96,175.92,13.71z"/>
		<path fill="#252525" d="M197.42,22V0.66H206c4.29,0,6.69,2.94,6.69,6.43c0,3.49-2.43,6.43-6.69,6.43h-5.92V22H197.42z
			 M209.93,7.09c0-2.4-1.73-4.06-4.26-4.06h-5.6v8.13h5.6C208.2,11.15,209.93,9.49,209.93,7.09z"/>
	</g>
	<rect fill="#252525" width="1" height="22"/>
	<rect x="1.99" fill="#252525" width="1.98" height="22"/>
	<rect x="5.02" fill="#252525" width="1.98" height="22"/>
	<rect x="7.94" fill="#252525" width="3.1" height="22"/>
	<rect x="12.02" fill="#252525" width="3.96" height="22"/>
	<rect x="17.04" fill="#252525" width="4.96" height="22"/>
</g>
</svg>
